<svg xmlns="http://www.w3.org/2000/svg" width="1600" height="900.588" viewBox="0 0 1600 900.588"><g id="Layer_2" data-name="Layer 2"><g id="About_Us" data-name="About Us"><g id="T_-_About_Us" data-name="T - About Us"><rect width="1600" height="900.588" fill="#fff"/><g id="The_Woman" data-name="The Woman"><path d="M561.7515,288.7482c-6.8161,3.6613-18.2562,3.5788-26.2945,4.3233-3.47.3214-19.5936.013-14.6792,6.3772,3.2507,4.21,19.1674,2.7985,24.2382,2.2779C551.9473,301.0149,559.1422,295.5467,561.7515,288.7482Z" fill="#f7e2d0"/><path d="M586.1677,440.256l52.5446-200.55c1.6941-6.4658,9.6581-11.6435,17.7881-11.5648l78.2683.7579c8.13.0787,13.3475,5.3841,11.6535,11.85l-52.5446,200.55c-1.6941,6.4657-9.6581,11.6435-17.7882,11.5648l-78.2683-.7579C589.6911,452.0271,584.4737,446.7218,586.1677,440.256Z" fill="#002e5d"/><path d="M523.342,282.7089c-5.6626,3.506-15.2479,3.8715-21.9926,5.1837-13.2182,2.5717-26.5276,4.3578-39.7195,6.9752-3.3559.6659-11.68,2.6-6.1093,6.8024,2.5858,1.9506,8.0508,1.1883,10.9741,1.3848,8.2311.5533,16.5954,1.48,24.87,1.2155,8.3067-.2653,17.6178-.1084,25.7245-1.9805a12.4451,12.4451,0,0,0,7.8158-5.1591C528.0476,292.8827,526.5987,287.9555,523.342,282.7089Z" fill="#f7e2d0"/><path d="M575.0409,222.8244c-.5931,7.056-11.2123,16.2436-15.5419,22.0043-6.5593,8.7274-14.3411,17.68-22.836,24.5761-7.0351,5.7108-18.6,12.031-23.2614,19.957-1.8464,3.1391-2.3492,7.1653.4623,9.9381,6.5708,6.48,16.0388-2.0262,21.6593-5.8549,16.3146-11.1137,30.6362-24.2138,45.8279-36.653,8.1122-6.6424,14.473-16.6875,9.43-27.4424C588.2588,223.9722,580.2341,218.072,575.0409,222.8244Z" fill="#f7e2d0"/><path d="M624.2233,205.7407c4.372,2.4768,1.9193,9.1407,9.0454,9.7736,4.6053.409,11.7-4.1,15.47-6.6917,9.0619-6.23,13.2455-5.9816,23.496-.8122,10.9807,5.5376,25.038,14.6277,31.59,25.7784,7.4887,12.7438-8.4407,26.46-14.6614,36.888-7.2935,12.2269-11.5695,25.0958-17.7321,37.8021-7.2228,14.8921-13.9285,29.0724-16.6024,45.5586-1.08,6.6582.0672,7.5248-6.0058,9.8542-12.8833,4.9416-26.4371.8-39.6986-.0935-7.8434-.5283-16.229-.2795-23.87-1.5957-11.7026-2.016-10.9725-10.0153-6.6469-19.0077,6.2973-13.0912,13.6-26.6584,12.412-41.6206-.7135-8.985-3.0445-17.7143-5.5972-26.3252-2.37-7.9952-3.1351-13.6671-10.0973-18.5543-5.1755-3.63-5.32-6.1448-4.9986-12.4816.3017-5.9523-3.5512-5.8166-4.5895-10.575-1.338-6.1316,5.6721-10.48,9.5769-14.0214,5.6464-5.1205,13.0044-6.799,20.4265-7.9138,5.9875-.8993,11.85-2.6088,17.6992-3.3977C617.6159,207.742,621.5683,209.3448,624.2233,205.7407Z" fill="#9f1c37"/><path d="M621.8481,191.5778c-1.04.893-1.1917,11.5728-1.5246,12.9271-.8526,3.4679-2.9445,6.5688-3.4561,10.1351-.5049,3.5214-.5474,8.6654,1.9262,11.4739,2.3477,2.6656,7.086,2.9808,10.45,3.045,7.6021.1452,15.0721-4.11,19.9714-9.7148,2.2933-2.6233,5.3912-4.8127,5.921-8.4686.5505-3.7986-1.2895-7.83-1.72-11.5681-.5812-5.0467.019-10.9451-.9774-15.9176-.3373-1.6836,1.7152-3.2729-.1363-5.0159-3.5787-3.3689-12.1025,2.7622-14.2092,4.77C632.9312,188.1632,625.5791,188.3735,621.8481,191.5778Z" fill="#f7e2d0"/><path d="M704.0056,257.6715a64.27,64.27,0,0,0,.66-11.4093c-6.7438,3.2485-13.7351,6.2576-21.0046,7.7768-.4634.0968-.9281.1664-1.3919.219-1.43,2.0213-3.0216,3.9838-4.0323,5.41-4.5376,6.405-11.4656,11.1883-17.15,16.5087a152.8115,152.8115,0,0,1-21.9677,16.7185c-3.6543,2.3411-8.0557,3.7741-11.1936,6.5656,2.4362,4.2883,14.5875,5.3933,19.2222,6.5442,10.1406,2.5182,16.4688-1.9258,24.6618-7.9758,9.277-6.8508,20.7385-15.4819,29.0436-25.286C701.7214,267.6915,703.012,262.7592,704.0056,257.6715Z" fill="#f7e2d0"/><rect x="481.5394" y="561.1189" width="168.6202" height="14.9351" rx="7.4676" fill="#002e5d"/><path d="M539.8671,302.9734c6.5294.2047,15.8612-12.38,22.83-15.3688,15.483-6.6417,32.8005-6.045,49.3775-6.1362,9.0944-.05,18.1075,1.1133,27.1627,1.3922,3.2843.1012,17.0835-1.8095,19.031.7335,3.2761,4.2777-10.29,13.5721-13.6569,15.1249-5.6461,2.604-11.4381,2.7754-17.7655,3.14Z" fill="#f7e2d0"/><path d="M654.1069,130.32C647.5,121.579,634.92,115.5882,623.9186,116.645a17.6673,17.6673,0,0,0-12.7026,7.1324l-.1127-1.26c-3.0061,3.5167-5.36,9.6016-6.9451,16.8687-.3451,1.1929-3.534,2.3759-3.33,3.5693,1.95,11.4116-1.695,20.3989-4.3364,22.6352-6.3529,5.3787.62,7.9084,3.6522,8.8866,2.5469.8216,2.3455,6.8756,2.9721,9.3133.25,4.2448.7491,10.0628,3.68,11.76,3.1957,1.8505,10.5987.7856,16.174-1.3451-.0411.0707,29.2731-4.2024,35.6275-21.4C663.3215,160.0217,662.7879,141.8048,654.1069,130.32Z" fill="#f7e2d0"/><path d="M677.2389,198.11c-2.93-8.2322-2.6865-16.34-3.1423-24.9072-.8217-15.4446,1.4372-31.8787-11.0193-44.1265-7.512-7.3862-20.217-15.5078-32.2711-15.9411-7.7085-.2774-20.5863,3.5124-25.4566,8.8054-3.12,3.3911-9.5741,17.1323-8.793,21.4778,1.7723.3232,3.41.1,6.3353-1.3794,5.0311-.51,7.9705-4.8257,13.0019-5.5222,6.2433-.8643,4.4334,1.8608,9.4128,3.6767,3.778,1.3779,8.9438-.4272,12.8893,1.4732,4.1775,2.0119,6.2113,6.4414,7.6308,10.0031,2.1311,5.3472,2.0712,11.3235,4.2712,16.5066s4.1267,5.659,3.0052,11.8484c-1.4375,7.9334-4.7448,15.947-3.1862,24.0418,1.086,5.64,5.5628,9.9541,7.1715,15.2924,3.1186,10.35,5.9416,22.4366,6.8676,33.0218,3.7658-6.1416,3.0315-15.1778,6.7147-21.9949a31.629,31.629,0,0,1,5.6335-7.7993c1.4257-1.2727,5.5132-2.136,6.3925-3.7005C685.4454,213.9966,678.9,202.7762,677.2389,198.11Z" fill="#f2ad22"/><rect x="600.2685" y="452.5318" width="21.1501" height="306.7603" fill="#002e5d"/><rect x="485.8774" y="430.1203" width="206.4379" height="24.8535" rx="12.1025" fill="#002e5d"/><path d="M545.07,426.5381c2.2131,5.5773,6.6114,8.2727,11.1086,12.5646,9.7722,9.3263,20.1722,22.4221,34.7353,11.121,18.8225-14.6067,40.3387-10.19,63.2671-11.0117,23.5692-.8441,25.5436-14.3485,22.458-32.0441-1.3993-8.0251-.1547-18.8333-3.7444-26.3483-4.8671-10.1892-21.82-18.5057-33.18-20.116-17.1062-2.4247-34.7883-.439-51.3077,3.9308a166.492,166.492,0,0,0-25.3809,8.9756c-3.0895,1.382-6.8821,2.6267-9.04,4.9941-2.4659,2.7046-4.1162,7.6513-5.506,10.9426-2.4085,5.7044-5.6,11.7178-6.13,17.7982a46.09,46.09,0,0,0,2.4446,18.449Q544.9256,426.1745,545.07,426.5381Z" fill="#1c76bc"/><path d="M599.3868,542.7046c1.3043-7.8079-.7579-16.5174-.76-25.4912-.0036-20.732.8057-41.7226-1.3665-62.1171-1.6017-15.0378-.6191-43.5748-13.3988-54.2912-16.53-13.8612-25.6764,12.4538-27.0344,24.9449-1.5553,14.3055,6.0662,27.1243,10.28,40.59l12.7884,41.7946c.1661,11.4364,2.9048,22.5763.0654,32.5817A42.5331,42.5331,0,0,0,599.3868,542.7046Z" fill="#1c76bc"/><path d="M579.9613,540.7161a27.88,27.88,0,0,1-10.1374,14.5992c-4.757,3.7616-12.0747,5.3144-15.4,10.7571-4.1769,6.836,3.9706,12.8253,10.4294,12.5629,4.143-.1689,11.2549.0179,14.4756-2.9108,1.6223-1.4751,2.1468-4.2739,3.4055-6.0643a13.54,13.54,0,0,1,6.216-4.6678c3.0185-1.2313,6.142-2.7166,9.1728-3.904,2.2223-.8707,4.592-1.6262,5.0294-4.236.4127-2.4635-.9373-4.7853-1.7448-6.9381-.6127-1.6332-.6395-5.1442-1.7768-6.3706-1.1191-1.2069-3.6349-.5409-5.066-.5178A40.258,40.258,0,0,1,579.9613,540.7161Z" fill="#f7e2d0"/><path d="M491.1217,530.9738c-6.2392,8.6181-20.9991,14.1446-30.8188,20.1392-6.6872,4.0824-18.57,10.5482-4.197,13.4048,18.9878,3.7738,35.192-11.3229,53.1869-14.3731,12.2623-2.0785,17.5073-2.36,13.8679-15.4369a30.0472,30.0472,0,0,1,.0611-16.26,49.303,49.303,0,0,1-20.8576-5.4149A173.6157,173.6157,0,0,1,491.1217,530.9738Z" fill="#f7e2d0"/><path d="M580.7267,392.0755c-8.3759-4.652-23.6126-5.834-28.7409,3.2841.4677.5814,1.1258.7764-.1869,2.5305,1.0839,8.0485-7.7615,20.8451-10.767,28.5279-6.0944,15.5788-10.819,30.72-18.459,45.8755-6.703,13.2969-12.8412,27.3993-20.2087,40.74a49.303,49.303,0,0,0,20.8576,5.4149c2.1537-8.03,6.9959-15.6041,11.6807-23.51,6.544-11.0434,12.8408-20.9324,21.6009-30.7573,10.5833-11.87,24.3958-23.1131,30.738-37.3256C592.7989,414.401,595.4834,400.2714,580.7267,392.0755Z" fill="#1c76bc"/><path d="M659.462,143.5628a33.1168,33.1168,0,0,0-1.2943-4.8938,60.9589,60.9589,0,0,0-10.0436-15.73c-3.816-4.3882-25.3791-18.7019-28.511-7.46,3.6462,2.2356,5.7366,1.4133,10.1714,2.6389,5.7717,1.5955,11.3774,6.2432,15.32,10.635,3.4277,3.8184,8.515,9.7788,10.87,15.3672a10.3759,10.3759,0,0,0-.2867,19.5425c-1.1109,1.7634-2.698,3.6057-3.3266,4.4773a45.3362,45.3362,0,0,1-5.767,7.0732,18.203,18.203,0,0,1-2.0537,1.7031,4.0134,4.0134,0,1,0,.6841.7837,66.4622,66.4622,0,0,0,7.7035-6.7966c.451-.4866,2.4093-4.187,3.908-6.885a10.3815,10.3815,0,1,0,2.6257-20.4563Z" fill="#002e5d"/></g><path d="M1496.2919,92.2849H1378.2234L1449.45,277.9535h-330.054L794.7814,850.6287H1242.904l226.55-399.6739a421.3219,421.3219,0,0,0,26.8376-358.67Z" fill="#e4e4e4"/><polygon points="1125.063 850.629 676.941 850.629 1001.555 277.954 1449.678 277.954 1125.063 850.629" fill="#c4c4c4"/><polygon points="1478.933 92.285 1030.811 92.285 1001.555 277.954 1449.677 277.954 1478.933 92.285" fill="#999"/><polygon points="1449.338 277.954 1331.269 277.954 1402.496 463.622 1482.659 399.245 1449.338 277.954" fill="#e4e4e4"/><g id="Screen"><polygon points="1046.635 110.298 1091.399 110.298 1087.366 133.244 1042.602 133.244 1046.635 110.298" fill="#1c76bc"/><polygon points="1098.688 110.298 1143.452 110.298 1139.419 133.244 1094.655 133.244 1098.688 110.298" fill="#f2ad22"/><polygon points="1150.741 110.298 1195.505 110.298 1191.472 133.244 1146.708 133.244 1150.741 110.298" fill="#f2ad22"/><polygon points="1202.794 110.298 1247.558 110.298 1243.525 133.244 1198.761 133.244 1202.794 110.298" fill="#1c76bc"/><polygon points="1254.847 110.298 1299.611 110.298 1295.578 133.244 1250.814 133.244 1254.847 110.298" fill="#f2ad22"/><polygon points="1306.9 110.298 1351.664 110.298 1347.631 133.244 1302.867 133.244 1306.9 110.298" fill="#f2ad22"/><polygon points="1358.953 110.298 1403.717 110.298 1399.684 133.244 1354.92 133.244 1358.953 110.298" fill="#f2ad22"/><polygon points="1411.006 110.298 1455.77 110.298 1451.737 133.244 1406.973 133.244 1411.006 110.298" fill="#f2ad22"/><polygon points="1040.92 142.813 1085.684 142.813 1081.651 165.759 1036.887 165.759 1040.92 142.813" fill="#f2ad22"/><polygon points="1092.973 142.813 1137.737 142.813 1133.704 165.759 1088.94 165.759 1092.973 142.813" fill="#f2ad22"/><polygon points="1145.026 142.813 1189.79 142.813 1185.757 165.759 1140.993 165.759 1145.026 142.813" fill="#f2ad22"/><polygon points="1197.079 142.813 1241.843 142.813 1237.81 165.759 1193.046 165.759 1197.079 142.813" fill="#1c76bc"/><polygon points="1249.132 142.813 1293.896 142.813 1289.863 165.759 1245.099 165.759 1249.132 142.813" fill="#f2ad22"/><polygon points="1301.185 142.813 1345.949 142.813 1341.916 165.759 1297.152 165.759 1301.185 142.813" fill="#f2ad22"/><polygon points="1353.238 142.813 1398.002 142.813 1393.969 165.759 1349.205 165.759 1353.238 142.813" fill="#f2ad22"/><polygon points="1405.291 142.813 1450.055 142.813 1446.022 165.759 1401.258 165.759 1405.291 142.813" fill="#1c76bc"/><polygon points="1035.205 175.328 1079.969 175.328 1075.936 198.273 1031.172 198.273 1035.205 175.328" fill="#f2ad22"/><polygon points="1087.258 175.328 1132.022 175.328 1127.989 198.273 1083.225 198.273 1087.258 175.328" fill="#f2ad22"/><polygon points="1139.311 175.328 1184.075 175.328 1180.042 198.273 1135.278 198.273 1139.311 175.328" fill="#f2ad22"/><polygon points="1191.364 175.328 1236.128 175.328 1232.095 198.273 1187.331 198.273 1191.364 175.328" fill="#f2ad22"/><polygon points="1243.417 175.328 1288.181 175.328 1284.148 198.273 1239.384 198.273 1243.417 175.328" fill="#f2ad22"/><polygon points="1295.47 175.328 1340.234 175.328 1336.201 198.273 1291.437 198.273 1295.47 175.328" fill="#1c76bc"/><polygon points="1347.523 175.328 1392.287 175.328 1388.254 198.273 1343.49 198.273 1347.523 175.328" fill="#f2ad22"/><polygon points="1399.576 175.328 1444.34 175.328 1440.307 198.273 1395.543 198.273 1399.576 175.328" fill="#f2ad22"/><polygon points="1029.491 207.843 1074.254 207.843 1070.222 230.788 1025.458 230.788 1029.491 207.843" fill="#f2ad22"/><polygon points="1081.543 207.843 1126.307 207.843 1122.274 230.788 1077.511 230.788 1081.543 207.843" fill="#f2ad22"/><polygon points="1133.596 207.843 1178.36 207.843 1174.327 230.788 1129.564 230.788 1133.596 207.843" fill="#1c76bc"/><polygon points="1185.649 207.843 1230.413 207.843 1226.38 230.788 1181.616 230.788 1185.649 207.843" fill="#f2ad22"/><polygon points="1237.702 207.843 1282.466 207.843 1278.433 230.788 1233.669 230.788 1237.702 207.843" fill="#f2ad22"/><polygon points="1289.755 207.843 1334.519 207.843 1330.486 230.788 1285.722 230.788 1289.755 207.843" fill="#f2ad22"/><polygon points="1341.808 207.843 1386.572 207.843 1382.539 230.788 1337.775 230.788 1341.808 207.843" fill="#f2ad22"/><polygon points="1393.861 207.843 1438.625 207.843 1434.592 230.788 1389.828 230.788 1393.861 207.843" fill="#f2ad22"/><polygon points="1023.776 240.358 1068.54 240.358 1064.507 263.303 1019.743 263.303 1023.776 240.358" fill="#f2ad22"/><polygon points="1075.829 240.358 1120.593 240.358 1116.56 263.303 1071.796 263.303 1075.829 240.358" fill="#f2ad22"/><polygon points="1127.882 240.358 1172.645 240.358 1168.613 263.303 1123.849 263.303 1127.882 240.358" fill="#f2ad22"/><polygon points="1179.935 240.358 1224.698 240.358 1220.666 263.303 1175.902 263.303 1179.935 240.358" fill="#f2ad22"/><polygon points="1231.987 240.358 1276.751 240.358 1272.718 263.303 1227.955 263.303 1231.987 240.358" fill="#f2ad22"/><polygon points="1284.04 240.358 1328.804 240.358 1324.771 263.303 1280.008 263.303 1284.04 240.358" fill="#1c76bc"/><polygon points="1336.093 240.358 1380.857 240.358 1376.824 263.303 1332.06 263.303 1336.093 240.358" fill="#f2ad22"/><polygon points="1388.146 240.358 1432.91 240.358 1428.877 263.303 1384.113 263.303 1388.146 240.358" fill="#1c76bc"/></g><polygon points="870.929 402.595 1378.972 402.595 1332.153 277.954 824.111 277.954 865.183 385.016 870.929 402.595" fill="#c4c4c4"/><polygon points="374.662 575.595 75.755 575.595 261.558 300.561 560.465 300.561 374.662 575.595" fill="#c4c4c4"/><rect x="354.0226" y="168.5602" width="170.2728" height="114.1353" fill="#e4e4e4"/><rect x="403.2489" y="264.8298" width="71.8203" height="35.7314" fill="#e4e4e4"/><polygon points="374.662 575.595 75.755 575.595 261.558 850.629 560.465 850.629 374.662 575.595" fill="#c4c4c4"/><polygon points="573.936 391.898 684.307 391.898 746.011 300.561 560.723 300.561 374.92 575.595 449.836 575.595 573.936 391.898" fill="#e4e4e4"/><polygon points="1177.769 759.292 573.936 759.292 449.836 575.595 374.92 575.595 560.723 850.629 1239.473 850.629 1177.769 759.292" fill="#e4e4e4"/><ellipse cx="313.5936" cy="432.8696" rx="117.556" ry="59.6229" transform="translate(-192.5003 260.8638) rotate(-35.3071)" fill="#1c76bc"/><g id="The_Man" data-name="The Man"><rect x="969.6213" y="413.3347" width="18.796" height="345.2423" fill="#002e5d"/><path d="M1067.0006,109.3667c1.5123,7.936,2.2506,11.4236,2.2506,11.4236-.2481,1.3522.0964,2.0945-.671,3.298-.9459,1.4835-1.59.9242-2.4275,1.758-2.1934,2.1846-1.8186,4.3514-2.7068,7.7376-1.21,4.6143-1.8585,10.67-5.6229,13.9447-4.0621,3.5333-7.3787,1.6259-11.709.3215-17.781-5.3562-.6389,16.482-3.3328,21.7737-2.2965,4.511-11.1975,2.4376-15.407,2.0969-6.2765-.5079-12.1038.4311-18.127-1.4758-4.0917-1.2953-11.2573-3.6735-13.7808-7.5684-2.5694-3.9656-.694-9.6641-.3086-13.9993.699-7.8629-1.5266-17.1073-4.3636-24.38-1.952-5.0038-3.5726-10.1251-5.2136-15.2368-1.3233-4.1219-3.7382-8.7913-4.1294-13.0425-.6472-7.0332,2.7484-15.4147,6.3534-21.26,7.7606-12.5825,21.8-19.6327,36.5639-20.4226,29.624-1.5849,45.7944,17.3971,45.576,40.6707C1069.8724,102.6978,1066.8024,108.3268,1067.0006,109.3667Z" fill="#f7e2d0"/><path d="M1205.8639,259.0771c8.2856-.8406,16.9057,1.893,25.1045,2.6257,6.7967.6074,19.3485-1.8282,18.4716,8.2683-.8044,9.2622-10.4221,7.64-17.4965,6.9326-2.1944-.2193-4.2212.2992-6.3041-.4815-1.6495-.6183-1.4328-2.9411-3.4527-3.2966-5.1814-.9119-5.0082,3.1283-10.3959,4.4384C1202.7912,279.7523,1195.4776,265.7242,1205.8639,259.0771Z" fill="#f7e2d0"/><path d="M1142.72,354.9423c-21.3048-12.5907-55.4038-16.1123-81.3216-18.6778-11.4976-1.1381-29.9445-.5363-39.8606,5.2341-15.9747,9.2962-11.4444,30.0783-20.7118,43.227-11.0143,13.4717,22.2016,16.5139,37.1855,17.1727-3.474,8.738-9.6051,16.2721-13.4843,24.8074-2.7094,5.9615-5.4381,11.8969-8.1355,17.8084-2.6471,5.8011-5.3669,10.5449-7.0319,16.68a163.8229,163.8229,0,0,1-5.531,17.1758c-1.35,3.44-5.6567,11.2425-3.9773,15.111,1.9338,4.4545,10.2783.4617,6.04,7.6662-2.0458,3.4774-5.1932,6.0682-2.0625,10.2244,2.3226,3.0833,6.6386,5.1818,9.647,7.6674a167.1477,167.1477,0,0,1,13.634,12.8692c4.5715,4.7345,8.9235,8.8779,15.2848,10.9767,3.61,1.1909,11.37,2.3814,13.2135-2.2158,1.54-3.841-2.914-12.3737-4.5642-15.853-2.0775-4.38-4.18-9.368-7.5164-12.9482-3.32-3.5625-8.3975-5.7457-7.957-11.0914,7.3752-1.2714,11.2323-10.4277,14.3347-16.6964,3.0455-6.1536,6.889-11.5747,10.2056-17.6738,3.5191-6.4716,5.8545-13.0588,9-19.8274,2.9406-6.3277,6.5464-12.3519,9.3333-18.4715,1.831-4.0206,3.4642-8.143,5.557-12.04,2.2508-4.1908,3.2963-7.635,8.2579-6.2915-.7732,2.2882-1.53,4.5112-2.1581,6.6131-3.5761,11.9635-8.3352,23.526-13.19,35.0157-4.409,10.4346-11.1038,18.6952-16.5213,28.6345-1.7864,3.2774-4.0673,6.6683-3.74,10.5647.3932,4.68,4.0843,5.9587,5.4112,9.5841,1.55,4.2359-2.34,4.3137-3.6735,7.558-1.4345,3.49-6.3131,8.5445-4.3955,10.8067,3.7786,4.4584,5.209,6.1457,11.2393,7.9229,17.0064,5.012,27.07,6.9326,40.6051,17.8266,4.81,3.8713,16.2009,7.32,20.4553,2.323,5.8141-6.8283,2.1037-9.8941-1.6384-15.1376-3.5418-4.9631-19.4772-20.1976-27.8821-20.1538,6.5633,1.5038,12.6814-20.5851,14.9075-25.1456,7.8443-16.071,18.8171-32.8322,29.0955-48.1426,4.4619-6.6466,19.7012-28.3443,21.6956-30.8869C1181.4816,382.92,1165.0524,368.14,1142.72,354.9423Z" fill="#9f1c37"/><path d="M910.0368,378.2406c-6.21,4.107-13.0725-24.1786-14.19-30.7459-2.9069-17.09-.5451-35.42,2.8468-52.3377,5.8633-29.2435,12.6759-60.3934,23.9572-87.9807,8.7879-21.49,24.3295-43.4314,47.1883-51.2117,4.3277-1.473,9.47-2.888,14.0864-2.7039,2.3884.0952,4,.5712,6.15-.9608a16.0926,16.0926,0,0,0,4.1894-5.2057c.9421-1.6251.91-1.8736,2.8862-1.8461a53.0258,53.0258,0,0,1,9.6587,1.393c8.1563,1.7087,16.5373,3.1207,24.8965,2.793,3.0178-.1182,5.27-.0987,7.7965,1.434A68.5549,68.5549,0,0,0,1046.04,154.7c2.9024,1.3444,3.8559,1.3124,4.2528,4.4772a5.85,5.85,0,0,1,.0591,2.2425c-.1243.5462-.9431.82-.8535,1.4453.1906,1.331,4.4645,2.6428,5.5756,3.0754,4.1391,1.6117,8.6054,2.2192,12.9019,3.3039,2.5134.6346,5.4948,1.4523,7.3948,3.3064,1.9923,1.9442,2.9388,5.3212,3.99,7.8482,2.5339,6.0923,2.69,12.6143,4.325,18.9513,1.3358,5.1772,2.9677,10.646,5.6185,15.3334,2.5565,4.52,6.3218,6.4537,10.5106,9.15,4.0692,2.6192,7.9625,5.5821,11.8536,8.4477a87.6815,87.6815,0,0,0,10.8459,6.7461c1.5706.8329,2.77,2.2423,4.3442,3.0969a44.6088,44.6088,0,0,0,5.8347,2.4494,87.4972,87.4972,0,0,0,13.75,3.6774c9.4044,1.8091,18.9644,2.6167,28.3974,4.2487,21.2394,3.6747,40.2451-1.57,38.4967,25.6813-19.5092,5.1312-46.5223,5.16-66.5886,5.3772-18.8071.2035-38.5747,3.7824-56.2072-4.2333a95.2333,95.2333,0,0,1-21.4458-13.743c-3.4207-2.8116-6.7747-5.4881-9.3707-8.8662-2.0722-2.6965-3.8436-7.5873-6.9608-9.0474-1.7695,3.7861-11.6583,32.5053-16.0315,40.47-5.0124,9.129-3.6031,17.33-2.5861,27.7033.9056,9.2371.4262,17.5914,5.2153,25.2056,4.4664,7.101,1.8827,11.5975,1.8814,19.4877-.0007,3.7978.4339,8.0488-.43,11.6745-.7767,3.26-2.921,6.2529-3.6067,9.5983-22.4653,15.5066-48.0784,11.1213-73.9628,9.11-16.6571-1.2943-41.3968-3.3188-56.6339-9.6278C905.7258,378.62,905.5712,375.8741,910.0368,378.2406Z" fill="#1c76bc"/><path d="M817.5105,178.2l52.5446,200.55c1.6941,6.4657,9.6581,11.6435,17.7881,11.5648l78.2683-.7579c8.13-.0788,13.3475-5.3841,11.6534-11.85L925.22,177.1568c-1.694-6.4658-9.658-11.6435-17.7881-11.5648l-78.2683.7579C821.0339,166.4286,815.8165,171.734,817.5105,178.2Z" fill="#002e5d"/><rect x="875.8003" y="388.4812" width="206.4379" height="24.8535" rx="12.1025" fill="#002e5d"/><rect x="941.6763" y="516.5529" width="168.6202" height="14.9351" rx="7.4676" fill="#002e5d"/><path d="M994.2556,136.2717c1.8846.794,4.9138.2266,7.0949.0129,3.3079-.3241,6.6682-.343,10.0544-.343,6.23,0,12.5779.2889,18.7841-.05-.1418-3.8454-.9405-7.811-.9405-12,0-3.2927-.9583-8.5637.5786-11.3975.871-1.606,3.1547-2.2987,4.1248-3.8638,1.3486-2.1756.4011-3.4845.5662-5.87.2651-3.8274,4.3183-6.7542,7.9183-7.4415,5.56-1.0616,6.605,3.1742,6.67,7.5588,7.121-.2058,7.0323-7.7946,8.1988-12.992.5427-2.4184.8938-7.39,2.9478-9.1155,2.3411-1.9668,6.1492,1.0864,8.75.6757.3554-2.9-1.71-7.21-3.256-9.6514-3.51-5.5421-7.33-9.4884-13.3093-12.3639-2.7293-1.3125-5.5722-2.4336-8.2655-3.6933-1.9643-.9187-3.9444-2.2046-6.13-2.5131-1.122-.1584-2.1732.0554-3.2733-.0718-1.39-.1606-2.8066-.68-4.1842-.9553-5.7257-1.1444-11.69-1.5295-17.3348.2382-5.6287,1.7625-14.7023,5.0247-18.2843,9.8725-.5216.706.2376,1.8607-.3641,2.6557-.7631,1.0084-1.3515.7917-2.2533,1.3963-1.3081.877-2.79,1.48-4.0261,2.4847-2.5778,2.0942-3.5372,5.4705-4.9239,8.5242-2.9691,6.5378-4.7072,11.7777-4.3283,19.2866.1684,3.3384,1.3847,5.6054,2.7144,8.5767,1.37,3.061,1.7447,6.2836,2.9664,9.4449,1.434,3.7106,3.1374,7.3262,3.8639,11.348.541,2.9948.1005,8.24,2.4143,10.5029C992.0248,137.5022,993.375,137.96,994.2556,136.2717Z" fill="#42221b"/></g></g></g></g></svg>